#N canvas 153 60 1078 661 10;
#X obj 149 20 loadbang;
#X obj 49 177 soundfiler;
#N canvas 304 189 832 534 reverb 0;
#N canvas 503 264 450 300 plain 0;
#X obj 153 90 delread~ delay1;
#X obj 118 180 +~;
#X obj 107 64 inlet~;
#X obj 109 299 outlet~;
#X obj 162 150 *~ 0.75;
#X obj 185 215 delwrite~ delay1 60;
#X connect 0 0 4 0;
#X connect 1 0 3 0;
#X connect 1 0 5 0;
#X connect 2 0 1 0;
#X connect 4 0 1 1;
#X restore 217 140 pd plain;
#N canvas 122 287 450 300 plain 0;
#X obj 153 90 delread~ delay1;
#X obj 118 180 +~;
#X obj 107 64 inlet~;
#X obj 109 299 outlet~;
#X obj 185 215 delwrite~ delay1 44;
#X obj 162 150 *~ 0.75;
#X connect 0 0 5 0;
#X connect 1 0 3 0;
#X connect 1 0 4 0;
#X connect 2 0 1 0;
#X connect 5 0 1 1;
#X restore 368 146 pd plain;
#N canvas 61 181 450 300 plain 0;
#X obj 153 90 delread~ delay1;
#X obj 118 180 +~;
#X obj 107 64 inlet~;
#X obj 109 299 outlet~;
#X obj 162 150 *~ 0.75;
#X obj 185 215 delwrite~ delay1 30;
#X connect 0 0 4 0;
#X connect 1 0 3 0;
#X connect 1 0 5 0;
#X connect 2 0 1 0;
#X connect 4 0 1 1;
#X restore 120 122 pd plain;
#N canvas 512 302 450 300 plain 0;
#X obj 153 90 delread~ delay1;
#X obj 118 180 +~;
#X obj 107 64 inlet~;
#X obj 109 299 outlet~;
#X obj 185 215 delwrite~ delay1 50;
#X obj 162 150 *~ 0.75;
#X connect 0 0 5 0;
#X connect 1 0 3 0;
#X connect 1 0 4 0;
#X connect 2 0 1 0;
#X connect 5 0 1 1;
#X restore 524 148 pd plain;
#N canvas 175 243 515 399 allpass 0;
#X obj 163 100 delread~ delay1;
#X obj 128 190 +~;
#X obj 117 74 inlet~;
#X obj 113 370 outlet~;
#X obj 138 307 +~;
#X obj 172 160 *~ 0.75;
#X obj 126 253 *~ -0.75;
#X obj 219 242 delwrite~ delay1 80;
#X connect 0 0 4 1;
#X connect 0 0 5 0;
#X connect 1 0 6 0;
#X connect 1 0 7 0;
#X connect 2 0 1 0;
#X connect 4 0 3 0;
#X connect 5 0 1 1;
#X connect 6 0 4 0;
#X restore 350 378 pd allpass;
#N canvas 488 227 515 399 allpass 0;
#X obj 163 100 delread~ delay1;
#X obj 128 190 +~;
#X obj 117 74 inlet~;
#X obj 113 370 outlet~;
#X obj 138 307 +~;
#X obj 172 160 *~ 0.75;
#X obj 126 253 *~ -0.75;
#X obj 219 242 delwrite~ delay1 90;
#X connect 0 0 4 1;
#X connect 0 0 5 0;
#X connect 1 0 6 0;
#X connect 1 0 7 0;
#X connect 2 0 1 0;
#X connect 4 0 3 0;
#X connect 5 0 1 1;
#X connect 6 0 4 0;
#X restore 356 450 pd allpass;
#X obj 381 41 inlet~;
#X obj 350 315 +~;
#X obj 356 490 outlet~;
#X obj 123 184 *~ 1;
#X obj 252 211 *~ 0.9;
#X obj 372 201 *~ 0.8;
#X obj 544 221 *~ 0.7;
#X connect 0 0 10 0;
#X connect 1 0 11 0;
#X connect 2 0 9 0;
#X connect 3 0 12 0;
#X connect 4 0 5 0;
#X connect 5 0 8 0;
#X connect 6 0 2 0;
#X connect 6 0 0 0;
#X connect 6 0 1 0;
#X connect 6 0 3 0;
#X connect 7 0 4 0;
#X connect 9 0 7 0;
#X connect 10 0 7 0;
#X connect 11 0 7 1;
#X connect 12 0 7 1;
#X restore 371 352 pd reverb;
#X msg 43 38 bang;
#X obj 305 188 r phase;
#X msg 504 144 bang;
#X obj 604 199 delay 5;
#X text 557 144 <-- play the sample;
#X msg 504 235 \; cutoff 0 5;
#X text 514 192 cut the;
#X text 514 211 sound off;
#X obj 305 218 vline~;
#X msg 604 234 \; phase 1 \, 4.41e+08 1e+07 \; cutoff 1;
#X obj 316 285 tabread4~ reverbtable;
#X text 231 70;
#X obj 485 474 hip~ 5;
#X obj 485 440 *~;
#X obj 525 413 r cutoff;
#X obj 525 440 vline~;
#N canvas 0 22 450 278 (subpatch) 0;
#X array reverbtable 44000 float 2;
#X coords 0 1 43999 -1 200 140 1;
#X restore 528 -31 graph;
#X obj 474 528 output~;
#X obj 365 407 *~;
#X obj 154 216 vsl 15 128 0 1 0 0 empty empty empty 0 -8 0 8 -262144
-1 -1 12700 1;
#X floatatom 98 384 5 0 0 0 - - -;
#X obj 303 448 *~;
#X obj 378 473 +~;
#X obj 219 411 *~ -1;
#X obj 224 465 +~ 1;
#N canvas 0 22 450 300 (subpatch) 0;
#X array tabread4-out 44100 float 0;
#X coords 0 1.02 44100 -1.02 200 130 1;
#X restore 788 4 graph;
#X obj 659 385 tabwrite~ tabread4-out;
#X text 704 356 <-- click to display output;
#X msg 659 353 bang;
#X msg 61 90 read /Users/work/Documents/Development/nodal/samples/openframeworks/1.synth/data/sounds/SynthNote.aif
reverbtable;
#X text 683 184;
#X text 682 204;
#X connect 0 0 32 0;
#X connect 2 0 21 1;
#X connect 3 0 32 0;
#X connect 4 0 11 0;
#X connect 5 0 8 0;
#X connect 5 0 6 0;
#X connect 5 0 31 0;
#X connect 6 0 12 0;
#X connect 11 0 13 0;
#X connect 13 0 2 0;
#X connect 13 0 24 1;
#X connect 15 0 20 0;
#X connect 15 0 20 1;
#X connect 16 0 15 0;
#X connect 16 0 29 0;
#X connect 17 0 18 0;
#X connect 18 0 16 1;
#X connect 21 0 25 1;
#X connect 22 0 23 0;
#X connect 23 0 21 0;
#X connect 23 0 26 0;
#X connect 24 0 25 0;
#X connect 25 0 16 0;
#X connect 26 0 27 0;
#X connect 27 0 24 0;
#X connect 31 0 29 0;
#X connect 32 0 1 0;
